<?xml version="1.0" encoding="utf-8"?>
<!-- Generated by IcoMoon.io -->
<!DOCTYPE svg PUBLIC "-//W3C//DTD SVG 1.1//EN" "http://www.w3.org/Graphics/SVG/1.1/DTD/svg11.dtd">
<svg version="1.1" xmlns="http://www.w3.org/2000/svg" xmlns:xlink="http://www.w3.org/1999/xlink" width="40" height="40" viewBox="0 0 40 40">
<g id="icomoon-ignore">
</g>
<path d="M27.296 14.726c-0.264-0.71 7.080-7.27 2.796-12.584-1.004-1.242-4.402 5.952-9.23 9.208-2.662 1.796-8.862 5.62-8.862 7.734v13.682c0 2.542 9.828 5.234 17.298 5.234 2.738 0 6.702-17.15 6.702-19.876 0-2.734-8.44-2.686-8.704-3.398zM10 14.916c-1.314 0-6 0.8-6 6.244v9.696c0 5.444 4.686 6.042 6 6.042s-2-1.144-2-4.518v-12.746c0-3.536 3.314-4.718 2-4.718z" fill="#2571a1"></path>
</svg>
