<?xml version="1.0" encoding="utf-8"?>
<!-- Generated by IcoMoon.io -->
<!DOCTYPE svg PUBLIC "-//W3C//DTD SVG 1.1//EN" "http://www.w3.org/Graphics/SVG/1.1/DTD/svg11.dtd">
<svg version="1.1" xmlns="http://www.w3.org/2000/svg" xmlns:xlink="http://www.w3.org/1999/xlink" width="40" height="40" viewBox="0 0 40 40">
<g id="icomoon-ignore">
</g>
<path d="M33.296 10.286l-17.996-9.278c-2.466-1.298-7.326 1.21-8.722 3.418-0.622 0.988-0.578 1.7-0.578 2.104l0.222 20.95c0.014 0.446 0.576 1.044 1.054 1.34 0.998 0.612 16.12 10.050 16.546 10.318 0.23 0.144 0.504 0.21 0.772 0.21 0.228 0 0.458-0.050 0.666-0.154 0.456-0.224 0.74-0.656 0.74-1.13v-22.002c0-0.458-0.268-0.88-0.704-1.11l-16.356-9.132c0.184-0.36 0.912-1.12 2.25-1.82 1.41-0.74 2.464-0.46 2.706-0.366 0 0 15.7 8.402 16.18 8.652 0.478 0.25 0.488 0.288 0.488 0.714 0 0.428 0 20.88 0 20.88 0 1.042 1.056 1.468 1.834 1.468 0.774 0 1.602-0.76 1.602-1.468v-22.484c0-0.458-0.27-0.882-0.704-1.11z" fill="#2571a1"></path>
</svg>
