<svg xmlns="http://www.w3.org/2000/svg" width="40" height="40" viewBox="0 0 40 40"><path d="M33.296 10.286L15.3 1.008C12.834-.29 7.974 2.218 6.578 4.426 5.956 5.414 6 6.126 6 6.53l.222 20.95c.014.446.576 1.044 1.054 1.34.998.612 16.12 10.05 16.546 10.318.23.144.504.21.772.21.228 0 .458-.05.666-.154.456-.224.74-.656.74-1.13V16.062c0-.458-.268-.88-.704-1.11L8.94 5.82c.184-.36.912-1.12 2.25-1.82 1.41-.74 2.464-.46 2.706-.366 0 0 15.7 8.402 16.18 8.652.478.25.488.288.488.714v20.88c0 1.042 1.056 1.468 1.834 1.468.774 0 1.602-.76 1.602-1.468V11.396c0-.458-.27-.882-.704-1.11z" fill="#2571a1"/></svg>