<svg xmlns="http://www.w3.org/2000/svg" width="40" height="40" viewBox="0 0 40 40"><path d="M38.796 14.828l-14.89-3.988L21.3 1.116C21.082.304 20.212-.17 19.356.06L1.206 4.922C.35 5.15-.166 5.996.05 6.808l6.458 24.104c.218.812 1.088 1.286 1.942 1.056l7.226-1.936-.986 3.676c-.218.814.298 1.658 1.154 1.888l16.22 4.346c.856.228 1.726-.244 1.944-1.056l5.942-22.172c.218-.812-.298-1.658-1.154-1.886zM3.268 7.264l15.658-4.192 5.798 21.636L9.064 28.9 3.268 7.264zm28.09 29.666l-13.63-3.728 1.072-4.006 7.802-2.09c.856-.23 1.374-1.074 1.156-1.888l-3.016-11.254 11.892 3.262-5.276 19.704z" fill="#2571a1"/></svg>