<?xml version="1.0" encoding="utf-8"?>
<!-- Generator: Adobe Illustrator 16.0.4, SVG Export Plug-In . SVG Version: 6.00 Build 0)  -->
<!DOCTYPE svg PUBLIC "-//W3C//DTD SVG 1.1//EN" "http://www.w3.org/Graphics/SVG/1.1/DTD/svg11.dtd">
<svg version="1.1" id="Layer_1" xmlns="http://www.w3.org/2000/svg" xmlns:xlink="http://www.w3.org/1999/xlink" x="0px" y="0px"
	 width="40px" height="40px" viewBox="0 0 40 40" enable-background="new 0 0 40 40" xml:space="preserve">
<g id="icomoon-ignore">
</g>
<path fill="#2571A1" d="M35.977,15.604l-12.656-3.39l-2.215-8.265c-0.186-0.69-0.925-1.093-1.653-0.898L4.025,7.184
	C3.298,7.378,2.859,8.097,3.042,8.787l5.489,20.488c0.186,0.691,0.925,1.094,1.651,0.897l6.142-1.646l-0.838,3.125
	c-0.185,0.691,0.253,1.409,0.981,1.604l13.787,3.694c0.728,0.193,1.467-0.207,1.651-0.898l5.052-18.846
	C37.143,16.517,36.705,15.798,35.977,15.604z M5.778,9.175l13.309-3.563l4.928,18.39l-13.311,3.563L5.778,9.175z M29.654,34.391
	l-11.585-3.168l0.911-3.406l6.631-1.776c0.729-0.195,1.169-0.912,0.982-1.604l-2.562-9.566l10.107,2.773L29.654,34.391z"/>
</svg>
