<?xml version="1.0" encoding="utf-8"?>
<!-- Generated by IcoMoon.io -->
<!DOCTYPE svg PUBLIC "-//W3C//DTD SVG 1.1//EN" "http://www.w3.org/Graphics/SVG/1.1/DTD/svg11.dtd">
<svg version="1.1" xmlns="http://www.w3.org/2000/svg" xmlns:xlink="http://www.w3.org/1999/xlink" width="40" height="40" viewBox="0 0 40 40">
<g id="icomoon-ignore">
</g>
<path d="M38.796 14.828l-14.89-3.988-2.606-9.724c-0.218-0.812-1.088-1.286-1.944-1.056l-18.15 4.862c-0.856 0.228-1.372 1.074-1.156 1.886l6.458 24.104c0.218 0.812 1.088 1.286 1.942 1.056l7.226-1.936-0.986 3.676c-0.218 0.814 0.298 1.658 1.154 1.888l16.22 4.346c0.856 0.228 1.726-0.244 1.944-1.056l5.942-22.172c0.218-0.812-0.298-1.658-1.154-1.886zM3.268 7.264l15.658-4.192 5.798 21.636-15.66 4.192-5.796-21.636zM31.358 36.93l-13.63-3.728 1.072-4.006 7.802-2.090c0.856-0.23 1.374-1.074 1.156-1.888l-3.016-11.254 11.892 3.262-5.276 19.704z" fill="#2571a1"></path>
</svg>
