<?xml version="1.0" encoding="utf-8"?>
<!-- Generator: Adobe Illustrator 16.0.4, SVG Export Plug-In . SVG Version: 6.00 Build 0)  -->
<!DOCTYPE svg PUBLIC "-//W3C//DTD SVG 1.1//EN" "http://www.w3.org/Graphics/SVG/1.1/DTD/svg11.dtd">
<svg version="1.1" id="Layer_1" xmlns="http://www.w3.org/2000/svg" xmlns:xlink="http://www.w3.org/1999/xlink" x="0px" y="0px"
	 width="40px" height="40px" viewBox="0 0 40 40" enable-background="new 0 0 40 40" xml:space="preserve">
<g id="icomoon-ignore">
</g>
<path fill="#FFFFFF" d="M19.816,0.1C8.872,0.1,0,8.974,0,19.917C0,30.86,8.872,39.733,19.816,39.733s19.817-8.873,19.817-19.817
	C39.633,8.972,30.76,0.1,19.816,0.1z M19.816,35.426c-8.566,0-15.508-6.945-15.508-15.509c0-8.564,6.942-15.508,15.508-15.508
	c8.567,0,15.51,6.944,15.51,15.508C35.326,28.48,28.383,35.426,19.816,35.426z M21.324,8.716h-3.016v11.825l7.334,7.335l2.133-2.133
	l-6.451-6.451V8.716z"/>
</svg>
