<?xml version="1.0" encoding="utf-8"?>
<!-- Generator: Adobe Illustrator 16.0.4, SVG Export Plug-In . SVG Version: 6.00 Build 0)  -->
<!DOCTYPE svg PUBLIC "-//W3C//DTD SVG 1.1//EN" "http://www.w3.org/Graphics/SVG/1.1/DTD/svg11.dtd">
<svg version="1.1" id="Layer_1" xmlns="http://www.w3.org/2000/svg" xmlns:xlink="http://www.w3.org/1999/xlink" x="0px" y="0px"
	 width="40px" height="40px" viewBox="0 0 40 40" enable-background="new 0 0 40 40" xml:space="preserve">
<path fill="#FFFFFF" d="M19.816,4.063c-8.755,0-15.853,7.099-15.853,15.854c0,8.754,7.098,15.853,15.853,15.853
	c8.755,0,15.854-7.099,15.854-15.854S28.571,4.063,19.816,4.063z M19.816,32.324c-6.853,0-12.406-5.557-12.406-12.408
	c0-6.85,5.554-12.405,12.406-12.405c6.854,0,12.409,5.554,12.409,12.405C32.225,26.766,26.67,32.324,19.816,32.324z M21.022,10.956
	H18.61v9.459l5.868,5.869l1.706-1.706l-5.16-5.161L21.022,10.956L21.022,10.956z"/>
</svg>
