<?xml version="1.0" encoding="utf-8"?>
<!-- Generator: Adobe Illustrator 16.0.4, SVG Export Plug-In . SVG Version: 6.00 Build 0)  -->
<!DOCTYPE svg PUBLIC "-//W3C//DTD SVG 1.1//EN" "http://www.w3.org/Graphics/SVG/1.1/DTD/svg11.dtd">
<svg version="1.1" id="Layer_1" xmlns="http://www.w3.org/2000/svg" xmlns:xlink="http://www.w3.org/1999/xlink" x="0px" y="0px"
	 width="38.5px" height="40.025px" viewBox="0 0 38.5 40.025" enable-background="new 0 0 38.5 40.025" xml:space="preserve">
<g>
	<path fill="#2571A1" d="M20.605,26.545V5.768c0.977-1.824,1.824-2.345,2.801-2.996c0,2.41,0,19.735,0,20.452
		C22.038,24.201,20.8,25.764,20.605,26.545z M22.299,27.651c-0.196-0.194-0.521-0.326-0.716-0.454
		c0.326-0.651,1.172-2.084,2.605-2.931l0.391-0.197V6.159c0.716-1.042,2.279-1.433,3.061-1.498c0,1.628,0,19.083,0,20.191
		C24.969,25.243,23.08,26.871,22.299,27.651z M24.122,30.843c-0.065-1.432-0.716-2.083-0.781-2.215
		c0.587-0.651,2.019-1.954,4.689-2.214l0.651-0.065V7.853c0.586-0.13,1.302-0.326,2.67,0.455c0,1.107,0,8.467,0,9.966h1.432V7.527
		c0,0-2.28-1.693-4.104-1.107V3.163l-0.782,0.065c-0.129,0-1.954,0.195-3.452,1.433V0.753l-1.042,0.586
		c-0.13,0.065-2.41,1.303-3.778,3.908l0,0v22.927c1.432,0.064,3.061,1.237,3.191,2.734h1.303L24.122,30.843L24.122,30.843z"/>
</g>
<g>
	<rect x="1" y="29.085" fill="#2571A1" width="1.824" height="1.822"/>
	<rect x="18.195" y="33.188" fill="#2571A1" width="1.824" height="1.825"/>
	<rect x="5.3" y="33.188" fill="#2571A1" width="1.824" height="1.825"/>
	<rect x="1" y="33.188" fill="#2571A1" width="1.824" height="1.825"/>
	<rect x="13.896" y="33.188" fill="#2571A1" width="1.825" height="1.825"/>
	<rect x="9.598" y="33.188" fill="#2571A1" width="1.824" height="1.825"/>
	<rect x="31.221" y="33.188" fill="#2571A1" width="1.824" height="1.825"/>
	<rect x="22.625" y="33.188" fill="#2571A1" width="1.824" height="1.825"/>
	<rect x="26.922" y="33.188" fill="#2571A1" width="1.825" height="1.825"/>
	<rect x="26.922" y="29.151" fill="#2571A1" width="1.825" height="1.823"/>
	<rect x="1" y="24.917" fill="#2571A1" width="1.824" height="1.823"/>
	<rect x="35.455" y="29.085" fill="#2571A1" width="1.824" height="1.822"/>
	<rect x="35.455" y="33.188" fill="#2571A1" width="1.824" height="1.825"/>
	<rect x="18.195" y="37.421" fill="#2571A1" width="1.824" height="1.826"/>
	<rect x="5.3" y="37.421" fill="#2571A1" width="1.824" height="1.826"/>
	<rect x="1" y="37.421" fill="#2571A1" width="1.824" height="1.826"/>
	<rect x="13.896" y="37.421" fill="#2571A1" width="1.825" height="1.826"/>
	<rect x="9.598" y="37.421" fill="#2571A1" width="1.824" height="1.826"/>
	<rect x="31.221" y="37.421" fill="#2571A1" width="1.824" height="1.826"/>
	<rect x="22.625" y="37.421" fill="#2571A1" width="1.824" height="1.826"/>
	<rect x="26.922" y="37.421" fill="#2571A1" width="1.825" height="1.826"/>
	<rect x="35.455" y="20.684" fill="#2571A1" width="1.824" height="1.823"/>
	<rect x="35.455" y="24.917" fill="#2571A1" width="1.824" height="1.823"/>
	<rect x="35.455" y="16.319" fill="#2571A1" width="1.824" height="1.824"/>
	<rect x="31.156" y="20.684" fill="#2571A1" width="1.824" height="1.823"/>
	<rect x="31.156" y="29.085" fill="#2571A1" width="1.824" height="1.822"/>
	<rect x="31.221" y="24.917" fill="#2571A1" width="1.824" height="1.823"/>
</g>
<path fill="#2571A1" d="M14.744,30.713c-2.019,0-8.207,0-9.444,0V7.721c1.628-0.847,2.801-0.651,3.386-0.39v20.191l0.782,0.064
	c2.996,0.196,4.885,1.693,5.666,2.476C15.003,30.192,14.873,30.454,14.744,30.713z M16.241,28.76
	c-0.977-0.912-3.257-2.605-6.253-2.996c0-1.237,0-20.582,0-22.405c1.954,0.26,3.582,2.214,3.582,2.214v19.214l0.522,0.26
	c1.563,0.912,2.54,2.411,2.996,3.192C16.827,28.369,16.501,28.564,16.241,28.76z M18.456,27.457c-0.39-0.783-2.149-2.67-3.778-3.713
	c0-0.779,0-20.385,0-23.121c1.042,0.847,3.256,3.582,3.778,5.471V27.457z"/>
</svg>
