<svg xmlns="http://www.w3.org/2000/svg" width="38.5" height="40.025" viewBox="0 0 38.5 40.025"><path fill="#2571A1" d="M20.605 26.545V5.768c.977-1.824 1.824-2.345 2.8-2.996v20.452c-1.367.977-2.605 2.54-2.8 3.32zM22.3 27.65c-.197-.193-.522-.325-.717-.453.326-.65 1.172-2.084 2.605-2.93l.39-.198V6.16c.717-1.043 2.28-1.434 3.062-1.5v20.192c-2.67.39-4.56 2.02-5.34 2.8zm1.822 3.193c-.065-1.432-.716-2.083-.78-2.215.586-.65 2.018-1.954 4.688-2.214l.65-.065V7.852c.587-.13 1.303-.326 2.67.455v9.966h1.433V7.527s-2.28-1.693-4.104-1.107V3.163l-.783.065c-.13 0-1.954.195-3.452 1.433V.754l-1.042.586c-.13.064-2.41 1.302-3.778 3.907v22.927c1.432.064 3.06 1.237 3.19 2.734h1.304l.002-.065z"/><g fill="#2571A1"><path d="M1 29.085h1.824v1.822H1zM18.195 33.188h1.824v1.825h-1.825zM5.3 33.188h1.824v1.825H5.3zM1 33.188h1.824v1.825H1zM13.896 33.188h1.825v1.825h-1.824zM9.598 33.188h1.824v1.825H9.598zM31.22 33.188h1.825v1.825H31.22zM22.625 33.188h1.824v1.825h-1.825zM26.922 33.188h1.825v1.825h-1.825zM26.922 29.15h1.825v1.824h-1.825zM1 24.917h1.824v1.823H1zM35.455 29.085h1.824v1.822h-1.825zM35.455 33.188h1.824v1.825h-1.825zM18.195 37.42h1.824v1.827h-1.825zM5.3 37.42h1.824v1.827H5.3zM1 37.42h1.824v1.827H1zM13.896 37.42h1.825v1.827h-1.824zM9.598 37.42h1.824v1.827H9.598zM31.22 37.42h1.825v1.827H31.22zM22.625 37.42h1.824v1.827h-1.825zM26.922 37.42h1.825v1.827h-1.825zM35.455 20.684h1.824v1.823h-1.825zM35.455 24.917h1.824v1.823h-1.825zM35.455 16.32h1.824v1.823h-1.825zM31.156 20.684h1.824v1.823h-1.824zM31.156 29.085h1.824v1.822h-1.824zM31.22 24.917h1.825v1.823H31.22z"/></g><path fill="#2571A1" d="M14.744 30.713H5.3V7.72c1.628-.846 2.8-.65 3.386-.39v20.192l.782.064c2.996.196 4.885 1.693 5.666 2.476-.13.13-.26.392-.39.65zm1.497-1.953c-.976-.912-3.256-2.605-6.252-2.996V3.36c1.954.26 3.582 2.213 3.582 2.213v19.214l.522.26c1.563.912 2.54 2.41 2.996 3.192-.26.13-.587.324-.847.52zm2.216-1.303c-.39-.783-2.15-2.67-3.778-3.713V.624c1.042.846 3.256 3.58 3.778 5.47v21.363z"/></svg>