<?xml version="1.0" encoding="utf-8"?>
<!-- Generated by IcoMoon.io -->
<!DOCTYPE svg PUBLIC "-//W3C//DTD SVG 1.1//EN" "http://www.w3.org/Graphics/SVG/1.1/DTD/svg11.dtd">
<svg version="1.1" xmlns="http://www.w3.org/2000/svg" xmlns:xlink="http://www.w3.org/1999/xlink" width="40" height="40" viewBox="0 0 40 40">
<g id="icomoon-ignore">
</g>
<path d="M32 2h-24c-2.2 0-4 1.8-4 4v28c0 2.2 1.8 4 4 4h24c2.202 0 4-1.8 4-4v-28c0-2.2-1.798-4-4-4zM32 34h-24v-28h24v28zM22 24h-10v2h10v-2zM28 16h-8v2h8v-2zM20 14h8v-4h-8v4zM18 10h-6v8h6v-8zM16 20h-4v2h4v-2zM18 22h10v-2h-10v2zM28 28h-16v2h16v-2zM24 26h4v-2h-4v2z" fill="#2571a1"></path>
</svg>
