<svg xmlns="http://www.w3.org/2000/svg" width="40.5" height="41.167" viewBox="0 0 40.5 41.167"><path fill="#231F1F" d="M2.712 3.182v24.336s9.355-1.09 9.355 8.05V12.536c.002-8.702-9.355-9.354-9.355-9.354"/><path fill="#aaa" d="M7.095 1.472v21.413s5.166.997 5.166 10.134c0 9.138.026-17.002.026-21.897 0-8.702-5.19-9.65-5.19-9.65"/><path fill="#3978AD" d="M12.427 12.318v22.146s4.49-12.582 23.374 3.627c0-5.873.038-20.688.038-25.584-18.665-13.597-23.41-.188-23.41-.188"/><path fill="#fff" d="M14.207 28.896h4.184l1.353-9.314h.043l3.714 9.314h1.674l3.884-9.314h.043l1.18 9.314h4.21L32.04 12.72h-4.184l-3.477 8.644-3.285-8.644h-4.14z"/></svg>