<?xml version="1.0" encoding="utf-8"?>
<!-- Generator: Adobe Illustrator 16.0.4, SVG Export Plug-In . SVG Version: 6.00 Build 0)  -->
<!DOCTYPE svg PUBLIC "-//W3C//DTD SVG 1.1//EN" "http://www.w3.org/Graphics/SVG/1.1/DTD/svg11.dtd">
<svg version="1.1" id="Layer_1" xmlns="http://www.w3.org/2000/svg" xmlns:xlink="http://www.w3.org/1999/xlink" x="0px" y="0px"
	 width="40.5px" height="41.167px" viewBox="0 0 40.5 41.167" enable-background="new 0 0 40.5 41.167" xml:space="preserve">
<g>
	<path fill="#231F1F" d="M2.712,3.182v24.336c0,0,9.355-1.089,9.355,8.05V12.536C12.069,3.834,2.712,3.182,2.712,3.182"/>
	<path fill="#AAAAAA" d="M7.095,1.472v21.413c0,0,5.166,0.997,5.166,10.134c0,9.139,0.025-17.001,0.025-21.896
		C12.287,2.421,7.095,1.472,7.095,1.472"/>
</g>
<path fill="#3978AD" d="M12.427,12.318v22.146c0,0,4.491-12.582,23.374,3.627c0-5.874,0.037-20.689,0.037-25.585
	C17.173-1.091,12.427,12.318,12.427,12.318"/>
<polygon fill="#FFFFFF" points="14.207,28.896 18.391,28.896 19.743,19.582 19.786,19.582 23.5,28.896 25.174,28.896 29.058,19.582 
	29.101,19.582 30.28,28.896 34.49,28.896 32.041,12.72 27.856,12.72 24.379,21.364 21.095,12.72 16.954,12.72 "/>
</svg>
